<?xml version="1.0" encoding="UTF-8" standalone="no"?>
<!-- Created with Inkscape (http://www.inkscape.org/) -->

<svg
   width="120.0px"
   height="120.0px"
   viewBox="0 0 120.0 120.0"
   version="1.1"
   id="SVGRoot"
   sodipodi:docname="icon.svg"
   inkscape:version="1.1.1 (3bf5ae0d25, 2021-09-20)"
   xmlns:inkscape="http://www.inkscape.org/namespaces/inkscape"
   xmlns:sodipodi="http://sodipodi.sourceforge.net/DTD/sodipodi-0.dtd"
   xmlns="http://www.w3.org/2000/svg"
   xmlns:svg="http://www.w3.org/2000/svg">
  <sodipodi:namedview
     id="namedview56880"
     pagecolor="#ffffff"
     bordercolor="#666666"
     borderopacity="1.0"
     inkscape:pageshadow="2"
     inkscape:pageopacity="0.0"
     inkscape:pagecheckerboard="0"
     inkscape:document-units="px"
     showgrid="true"
     inkscape:zoom="5.5731762"
     inkscape:cx="56.610448"
     inkscape:cy="68.273456"
     inkscape:window-width="1920"
     inkscape:window-height="1016"
     inkscape:window-x="0"
     inkscape:window-y="0"
     inkscape:window-maximized="1"
     inkscape:current-layer="layer1">
    <inkscape:grid
       type="xygrid"
       id="grid56943" />
  </sodipodi:namedview>
  <defs
     id="defs56875" />
  <g
     inkscape:label="Layer 1"
     inkscape:groupmode="layer"
     id="layer1">
    <path
       style="fill:#6f13f6;fill-opacity:1;stroke-width:2.76701;stroke-linecap:round;stroke-linejoin:round;stroke-miterlimit:4;stroke-dasharray:none"
       d="m 66.700444,100.00017 c 0.07747,-0.326944 3.052683,-14.657223 6.610971,-31.845046 3.558189,-17.18785 6.55395,-31.594554 6.657157,-32.014914 l 0.18732,-0.764268 h -8.868517 c -4.877686,0 -8.868518,-0.04094 -8.868518,-0.09075 0,-0.05009 0.668969,-3.068917 1.486549,-6.708685 l 1.486548,-6.617818 25.881305,-0.08719 c 24.545181,-0.08248 25.872561,-0.05617 25.712631,0.509538 -0.093,0.328111 -0.65073,2.812974 -1.23973,5.52193 -0.58903,2.708957 -1.21677,5.496051 -1.395,6.193553 l -0.32401,1.268189 -8.89689,0.09045 -8.896987,0.09046 -6.523337,31.420455 c -3.587831,17.281227 -6.617344,31.917229 -6.732179,32.524389 l -0.209,1.103967 h -8.105115 c -7.546602,0 -8.095401,-0.0409 -7.963652,-0.59443 z"
       id="path1201" />
    <path
       style="fill:#313131;fill-opacity:1;stroke:#313131;stroke-width:2.01773;stroke-linecap:round;stroke-linejoin:round;stroke-miterlimit:4;stroke-dasharray:none;stroke-opacity:1"
       d="m 29.276497,99.190199 c -5.081099,-0.694097 -9.600603,-2.591893 -14.044682,-5.897551 -1.103497,-0.820856 -2.09667,-1.494617 -2.207021,-1.497299 -0.110166,-0.004 -1.224885,1.57379 -2.476707,3.503249 L 8.2719984,98.806694 H 6.3108454 4.349686 L 4.2219718,89.727817 C 4.1519446,84.734451 4.0381475,78.053185 3.969573,74.880578 L 3.8448628,69.112237 h 2.1874057 2.1874266 l 0.5674921,2.457824 c 1.6099658,6.972828 4.1324578,11.850539 8.3894978,16.222666 4.792321,4.921861 9.994809,7.001217 17.517053,7.001217 3.520945,0 5.88446,-0.34713 8.026451,-1.178864 4.406927,-1.711236 8.020116,-5.770619 9.040691,-10.157194 0.495866,-2.13121 0.32244,-5.748745 -0.369171,-7.700662 -1.24917,-3.525707 -4.065777,-6.28708 -7.702458,-7.551409 C 42.935042,67.943631 38.11963,66.647416 32.988309,65.325336 23.036011,62.761178 20.042259,61.830154 16.810811,60.294499 12.048433,58.031264 9.2735249,55.491541 7.482824,51.757059 6.2461162,49.177988 5.7117995,46.492589 5.7062703,42.828664 5.6941265,34.198874 9.7828809,27.139305 16.836944,23.614526 c 7.426513,-3.710898 17.956788,-3.359507 25.484781,0.850395 1.41376,0.790611 3.520275,2.289843 4.443102,3.162212 0.349116,0.330042 0.716818,0.549308 0.817135,0.487324 0.100383,-0.06198 1.078711,-1.469699 2.174195,-3.128195 l 1.991801,-3.015465 1.83995,-0.0059 1.839924,-0.006 0.114837,1.254001 c 0.137757,1.50632 1.123731,23.27824 1.122236,24.778808 l -0.0012,1.053339 H 54.564807 52.465862 L 52.249911,48.192361 C 51.716555,46.08696 50.324891,42.356553 49.323172,40.347252 44.73417,31.142285 38.933058,26.693202 30.592872,25.982355 20.849271,25.151913 13.727288,30.286887 13.727288,38.142553 c 0,3.382407 0.877374,5.598548 3.091373,7.808571 2.978158,2.97275 5.433459,3.971688 16.977721,6.907396 9.659115,2.456326 12.585503,3.36011 15.551873,4.80307 7.200999,3.502872 10.997751,10.583019 10.657552,19.874081 -0.150963,4.121806 -0.780841,6.753114 -2.377642,9.931594 -2.914354,5.801206 -7.974184,9.502984 -15.410236,11.274208 -1.872154,0.4459 -2.631671,0.50932 -6.821736,0.56949 -2.593233,0.03732 -5.346999,-0.01815 -6.11943,-0.124314 z"
       id="path1203" />
  </g>
</svg>
