<?xml version="1.0" encoding="UTF-8" standalone="no"?>
<!-- Created with Inkscape (http://www.inkscape.org/) -->

<svg
   width="280px"
   height="46px"
   viewBox="0 0 280 46"
   version="1.1"
   id="SVGRoot"
   sodipodi:docname="logo.svg"
   inkscape:version="1.1.1 (3bf5ae0d25, 2021-09-20)"
   xmlns:inkscape="http://www.inkscape.org/namespaces/inkscape"
   xmlns:sodipodi="http://sodipodi.sourceforge.net/DTD/sodipodi-0.dtd"
   xmlns="http://www.w3.org/2000/svg"
   xmlns:svg="http://www.w3.org/2000/svg">
  <sodipodi:namedview
     id="namedview58290"
     pagecolor="#ffffff"
     bordercolor="#666666"
     borderopacity="1.0"
     inkscape:pageshadow="2"
     inkscape:pageopacity="0.0"
     inkscape:pagecheckerboard="0"
     inkscape:document-units="px"
     showgrid="false"
     inkscape:zoom="3.9408307"
     inkscape:cx="110.5097"
     inkscape:cy="1.6493984"
     inkscape:window-width="1920"
     inkscape:window-height="1016"
     inkscape:window-x="0"
     inkscape:window-y="0"
     inkscape:window-maximized="1"
     inkscape:current-layer="layer1" />
  <defs
     id="defs58285" />
  <g
     inkscape:label="Layer 1"
     inkscape:groupmode="layer"
     id="layer1">
    <path
       style="fill:#313131;fill-opacity:1;stroke:#313131;stroke-width:0.81;stroke-linecap:round;stroke-linejoin:round;stroke-miterlimit:4;stroke-dasharray:none;stroke-opacity:1"
       d="m 14.88128,38.620139 c -2.039758,-0.27864 -3.854069,-1.040493 -5.6381029,-2.367516 -0.442989,-0.329525 -0.841688,-0.6 -0.885986,-0.601077 -0.04423,-0.0016 -0.491719,0.631784 -0.994251,1.406346 l -0.913713,1.408291 h -0.787287 -0.787288 l -0.05127,-3.644628 c -0.02811,-2.004539 -0.07379,-4.686668 -0.101323,-5.96028 l -0.05006,-2.315644 h 0.878113 0.878121 l 0.227813,0.986669 c 0.646307,2.799174 1.658936,4.757284 3.3678839,6.512433 1.923831,1.975833 4.012319,2.81057 7.032047,2.81057 1.413459,0 2.36226,-0.139352 3.222148,-0.473242 1.769121,-0.686961 3.219596,-2.31656 3.629294,-4.077508 0.199058,-0.855554 0.129438,-2.307779 -0.148197,-3.091357 -0.501471,-1.415361 -1.632167,-2.523887 -3.092078,-3.031441 -0.30277,-0.105251 -2.235876,-0.625604 -4.295795,-1.15634 -3.995252,-1.029356 -5.197066,-1.403106 -6.494297,-2.019581 -1.9118109,-0.908553 -3.0257719,-1.9281 -3.7446309,-3.427272 -0.496465,-1.035342 -0.710961,-2.113371 -0.71318,-3.584218 -0.0049,-3.464345 1.636515,-6.2983407 4.4683009,-7.7133295 2.981302,-1.4897034 7.208579,-1.3486419 10.230624,0.3413826 0.567535,0.3173825 1.413175,0.9192364 1.783636,1.2694399 0.140147,0.132492 0.287761,0.220514 0.328034,0.195631 0.04034,-0.02487 0.433034,-0.5899957 0.872808,-1.2557829 l 0.799591,-1.210529 0.738623,-0.00243 0.738623,-0.00243 0.04609,0.5034069 c 0.05532,0.6046974 0.451113,9.344824 0.450506,9.947213 l -4.46e-4,0.422852 H 25.03302 24.190418 l -0.08672,-0.342306 C 23.889591,17.302268 23.330917,15.804732 22.928793,14.998117 21.086586,11.302873 18.757779,9.5168313 15.409693,9.2314687 11.498219,8.898097 8.6391681,10.959482 8.6391681,14.113063 c 0,1.357835 0.352213,2.247482 1.2410019,3.134675 1.195552,1.193382 2.181209,1.594396 6.815543,2.772906 3.877559,0.98607 5.052327,1.348885 6.243148,1.928148 2.890769,1.406193 4.414938,4.24845 4.278372,7.978257 -0.06059,1.65466 -0.313462,2.710973 -0.95448,3.986942 -1.16994,2.328839 -3.201161,3.814881 -6.186294,4.525923 -0.751559,0.179002 -1.056459,0.20446 -2.738513,0.228615 -1.041036,0.01499 -2.146508,-0.0073 -2.456592,-0.0499 z"
       id="path22714" />
    <path
       style="fill:#313131;fill-opacity:1;stroke:#313131;stroke-width:0.81;stroke-linecap:round;stroke-linejoin:round;stroke-miterlimit:4;stroke-dasharray:none;stroke-opacity:1"
       d="m 41.147296,38.632629 c -3.129321,-0.507375 -5.559637,-1.77948 -7.728283,-4.045188 -1.079325,-1.127634 -1.772093,-2.106308 -2.525742,-3.568131 -1.299847,-2.521303 -1.911924,-5.046527 -1.913212,-7.893345 -0.0016,-2.506699 0.38552,-4.555416 1.268047,-6.718885 1.926196,-4.722024 5.650115,-7.9404864 10.204405,-8.819385 4.97762,-0.960579 9.572345,0.4602825 12.962195,4.008406 3.574554,3.741439 5.094041,9.535903 3.966448,15.125851 -1.228316,6.089394 -5.512795,10.584594 -11.241658,11.794564 -1.076133,0.227294 -3.901243,0.292993 -4.9922,0.116113 z m 3.348346,-1.82288 c 2.4031,-0.294492 4.323747,-1.475156 5.619853,-3.454658 1.079657,-1.648925 1.692365,-3.530369 2.006588,-6.16163 0.16797,-1.406541 0.140357,-7.350564 -0.04042,-8.689226 -0.275658,-2.041962 -0.602582,-3.182344 -1.341958,-4.681128 -1.107756,-2.245506 -2.925064,-3.787479 -5.140868,-4.3619632 -1.572048,-0.4075835 -3.688667,-0.3243317 -5.225941,0.2055537 -3.077328,1.0607035 -5.183085,4.2842355 -5.740527,8.7877065 -0.251051,2.028175 -0.2864,5.816391 -0.07776,8.336333 0.260674,3.148989 1.071395,5.428515 2.611505,7.342804 1.649468,2.050232 4.3604,3.04006 7.32952,2.676208 z"
       id="path22870" />
    <path
       style="fill:#313131;fill-opacity:1;stroke:#313131;stroke-width:0.81;stroke-linecap:round;stroke-linejoin:round;stroke-miterlimit:4;stroke-dasharray:none;stroke-opacity:1"
       d="m 55.577001,37.232253 v -0.955484 l 0.856842,-0.09642 c 2.423714,-0.272727 3.377668,-1.107059 3.782943,-3.308534 0.218765,-1.188286 0.288166,-4.783665 0.259516,-13.444112 -0.02543,-7.689201 -0.04074,-8.527372 -0.159951,-8.746016 -0.345554,-0.63386 -0.785068,-0.759961 -2.866695,-0.8224768 L 55.899178,9.8126352 V 8.8578724 7.9031009 l 5.376335,0.00243 5.376326,0.00243 4.02361,11.1883271 c 2.212985,6.153578 4.043358,11.175935 4.067488,11.160788 0.02414,-0.01515 1.765511,-5.050083 3.86972,-11.188741 l 3.825855,-11.1612003 5.255513,-0.00162 5.25551,-0.00162 v 0.9665327 0.9665321 l -1.06721,6.561e-4 c -2.0836,0.00162 -3.05206,0.2152814 -3.33686,0.7373184 -0.14004,0.256665 -0.14668,0.820765 -0.14668,12.471279 0,12.111913 0.002,12.204545 0.16334,12.484359 0.0898,0.155043 0.28918,0.343481 0.44299,0.418746 0.39026,0.190966 1.44166,0.306148 2.79455,0.306148 h 1.14987 v 0.966532 0.966533 h -6.846259 -6.846255 v -0.954885 -0.954877 l 1.59075,-0.0456 c 2.221479,-0.06375 2.64636,-0.217476 2.8323,-1.024722 0.103419,-0.449008 0.121446,-24.716389 0.01827,-24.602236 -0.03807,0.04204 -2.164527,6.266533 -4.725549,13.832119 L 74.316412,38.19392 73.508461,38.17116 72.70051,38.14832 67.764314,24.496078 c -2.714893,-7.50874 -4.97114,-13.724745 -5.013868,-13.813343 -0.05014,-0.104101 -0.07096,3.643024 -0.05856,10.591568 0.01741,9.750351 0.03199,10.821762 0.156897,11.493973 0.429122,2.30978 1.347451,3.138078 3.78287,3.411963 l 0.86585,0.09738 v 0.955492 0.955484 h -5.960272 -5.96028 z"
       id="path22909" />
    <path
       style="fill:#313131;fill-opacity:1;stroke:#313131;stroke-width:0.81;stroke-linecap:round;stroke-linejoin:round;stroke-miterlimit:4;stroke-dasharray:none;stroke-opacity:1"
       d="m 103.67812,38.700856 c -4.484225,-0.651929 -7.846215,-2.848592 -10.154055,-6.634475 -3.0867,-5.063578 -3.33856,-11.540645 -0.65627,-16.877784 2.04691,-4.072842 5.44287,-6.7607052 9.602145,-7.5999867 5.1943,-1.04814 10.25915,0.6790716 13.55821,4.6236097 1.91824,2.293563 3.14903,5.098123 3.60912,8.224067 0.19332,1.313318 0.19332,3.904962 0,5.218279 -0.88569,6.017328 -4.63574,10.742593 -9.87806,12.446865 -1.44817,0.470789 -2.20364,0.582974 -4.10776,0.609995 -0.95244,0.01345 -1.84044,0.0087 -1.97333,-0.01061 z m 3.62448,-2.004904 c 2.86359,-0.592442 4.98067,-2.632565 6.10741,-5.885412 0.71082,-2.052062 0.89683,-3.685888 0.89323,-7.845651 -0.004,-3.266852 -0.0741,-4.325959 -0.39928,-5.938021 -0.52656,-2.609772 -1.73483,-4.800287 -3.36909,-6.107838 -1.58281,-1.2664022 -3.27344,-1.7904475 -5.48751,-1.7009425 -3.33056,0.1346544 -5.555935,1.6110735 -7.048065,4.6760565 -0.74908,1.538684 -1.07989,2.742709 -1.34151,4.882429 -0.20404,1.668689 -0.20392,6.848518 1.7e-4,8.537692 0.348,2.880189 1.05468,4.829989 2.38641,6.584554 1.223165,1.611552 3.012885,2.631123 5.117015,2.915077 0.7684,0.103696 2.35853,0.04398 3.14122,-0.117944 z"
       id="path22948" />
    <path
       style="fill:#6f13f6;fill-opacity:1;stroke-width:1.11078;stroke-linecap:round;stroke-linejoin:round;stroke-miterlimit:4;stroke-dasharray:none"
       d="m 121.74965,38.188575 c 0.0311,-0.13125 1.22547,-5.884001 2.65391,-12.783887 1.4284,-6.899895 2.63102,-12.683327 2.67245,-12.852077 l 0.0752,-0.306807 h -3.56018 c -1.9581,0 -3.56018,-0.01643 -3.56018,-0.03643 0,-0.02011 0.26855,-1.231988 0.59676,-2.693137 l 0.59676,-2.6566594 10.3898,-0.034996 c 9.85342,-0.033098 10.38629,-0.022552 10.32209,0.2045504 -0.0373,0.1317164 -0.26123,1.1292396 -0.49768,2.2167241 -0.23647,1.0874849 -0.48846,2.2063369 -0.56001,2.4863419 l -0.13007,0.509103 -3.57157,0.03632 -3.57161,0.03632 -2.61873,12.613438 c -1.4403,6.937385 -2.65647,12.812867 -2.70257,13.056605 l -0.0839,0.443178 h -3.25372 c -3.02951,0 -3.24982,-0.01643 -3.19693,-0.238628 z"
       id="path49662" />
    <path
       style="fill:#6f13f6;fill-opacity:1;stroke-width:1.11078;stroke-linecap:round;stroke-linejoin:round;stroke-miterlimit:4;stroke-dasharray:none"
       d="m 137.67424,38.388797 c 0,-0.117187 6.54667,-31.0611472 6.62712,-31.3242567 0.0671,-0.2201899 0.3806,-0.2385509 4.05235,-0.2375177 5.54653,0.00112 7.05011,0.1996616 9.16113,1.2069705 2.94391,1.4047675 4.12089,3.7260829 3.98525,7.8599529 -0.074,2.250247 -0.42772,3.570506 -1.33204,4.969642 -1.07578,1.664445 -2.89587,3.229953 -4.54,3.904929 -0.35054,0.1439 -0.61274,0.323002 -0.58271,0.398001 0.0301,0.07497 1.1686,2.989682 2.53011,6.477069 1.36153,3.487387 2.52382,6.389016 2.58287,6.448076 0.0992,0.0992 1.95693,-3.520144 12.21571,-23.799969 l 3.77666,-7.4657934 h 4.00524 4.00523 l 0.0725,0.4431779 c 0.0873,0.5341291 2.53091,30.2959865 2.53091,30.8231285 v 0.369556 h -3.13632 -3.13631 l -0.003,-0.306808 c -0.002,-0.213724 -0.33503,-6.115798 -0.4039,-7.158985 -9e-4,-0.01876 -2.19596,-0.03378 -4.87717,-0.03343 l -4.87493,6.8e-4 -1.68916,3.749318 -1.68918,3.749253 h -6.90274 -6.90275 l -2.02097,-6.068078 -2.02099,-6.068091 h -1.20186 c -0.83866,0 -1.21996,0.05154 -1.26174,0.170448 -0.0329,0.09376 -0.60707,2.824298 -1.27591,6.067891 l -1.21609,5.89743 -3.23858,1.34e-4 c -1.78123,1.77e-4 -3.23858,-0.03255 -3.23858,-0.07265 z m 41.97323,-17.688071 c -0.12686,-2.568729 -0.23792,-5.604852 -0.24681,-6.746942 -0.009,-1.14208 -0.0687,-2.109023 -0.13302,-2.148745 -0.0643,-0.03976 -0.22262,0.250392 -0.35183,0.644718 -0.37919,1.157063 -1.80338,4.380052 -3.86427,8.744877 -1.05783,2.240394 -1.92332,4.096615 -1.92332,4.124939 0,0.02832 1.51873,0.05154 3.37494,0.05154 l 3.37497,4.5e-5 z m -28.36599,0.02444 c 1.48492,-0.33079 2.66909,-1.254811 3.28083,-2.560088 0.31977,-0.682306 0.36119,-0.936186 0.35919,-2.202973 -0.002,-1.208015 -0.0489,-1.519699 -0.30073,-1.994179 -0.65143,-1.227454 -1.79099,-1.725392 -3.79678,-1.659013 l -1.19678,0.03965 -0.86034,4.159031 c -0.47317,2.287456 -0.86149,4.244493 -0.86293,4.34896 -0.002,0.156299 0.24508,0.173026 1.39512,0.09442 0.76873,-0.05254 1.66082,-0.154132 1.98242,-0.225776 z"
       id="path49740" />
    <path
       style="fill:#6f13f6;fill-opacity:1;stroke-width:1.11078;stroke-linecap:round;stroke-linejoin:round;stroke-miterlimit:4;stroke-dasharray:none"
       d="m 196.11375,38.674888 c -2.19502,-0.465794 -3.62667,-1.21387 -4.99114,-2.608029 -2.51868,-2.573482 -3.60149,-6.845157 -3.04962,-12.03069 0.79014,-7.424749 4.14891,-13.290511 9.14712,-15.9745513 2.41829,-1.2986204 4.41698,-1.7086861 7.82531,-1.6054838 2.99045,0.090535 4.87242,0.5414039 7.32103,1.7538406 l 0.77568,0.3840843 -1.00715,2.1072682 c -0.55396,1.158997 -1.12866,2.345462 -1.27719,2.636575 l -0.27002,0.529308 -1.28845,-0.632754 c -1.7879,-0.878049 -3.00668,-1.235275 -4.5231,-1.325747 -2.55635,-0.152522 -4.10714,0.442956 -5.93525,2.279027 -1.27006,1.275595 -1.79168,2.068945 -2.61319,3.974407 -1.04315,2.419629 -1.61258,5.266642 -1.61347,8.066925 -9e-4,4.423717 1.27914,6.494206 4.36304,7.054505 1.78379,0.324091 5.08277,-0.272386 7.94591,-1.436692 0.2271,-0.09231 0.23931,0.06731 0.20453,2.678374 l -0.037,2.776577 -1.70453,0.511848 c -0.93748,0.281515 -2.13406,0.607917 -2.65903,0.725349 -1.34205,0.300177 -5.44225,0.384406 -6.61355,0.135859 z"
       id="path49779" />
    <path
       style="fill:#6f13f6;fill-opacity:1;stroke-width:1.11078;stroke-linecap:round;stroke-linejoin:round;stroke-miterlimit:4;stroke-dasharray:none"
       d="m 208.78146,37.950405 c 0.34962,-1.559786 6.5381,-30.9086249 6.5381,-31.0069179 0,-0.064647 1.47387,-0.1175825 3.27525,-0.1175825 h 3.27529 l -0.0727,0.3068196 c -0.0399,0.1687494 -0.74551,3.4976728 -1.56784,7.3976028 -0.82238,3.89994 -1.52235,7.201694 -1.55556,7.33722 -0.1238,0.505439 0.21365,0.106411 1.71655,-2.029746 0.84837,-1.205827 3.40711,-4.6268 5.68612,-7.602152 l 4.14364,-5.4097444 h 3.81583 3.81585 L 237.3841,7.405443 c -0.25737,0.3187484 -2.99714,3.727336 -6.0884,7.57466 l -5.62042,6.995113 2.61137,7.527373 c 1.43627,4.140058 2.72367,7.850535 2.86088,8.245493 l 0.24947,0.718119 -3.63075,-0.03632 -3.63074,-0.03631 -1.99653,-6.340809 c -1.0981,-3.487442 -2.05387,-6.340809 -2.12396,-6.340809 -0.13854,0 -2.51373,1.417942 -2.51373,1.500638 0,0.02777 -0.52159,2.548747 -1.15907,5.60212 -0.63749,3.053372 -1.15908,5.573061 -1.15908,5.599308 0,0.02622 -1.46618,0.04777 -3.25817,0.04777 h -3.25818 z"
       id="path49818" />
    <path
       style="fill:#6f13f6;fill-opacity:1;stroke-width:1.11078;stroke-linecap:round;stroke-linejoin:round;stroke-miterlimit:4;stroke-dasharray:none"
       d="m 233.06284,38.223135 c 0.0543,-0.229542 6.40116,-30.2558886 6.5574,-31.0222362 l 0.0763,-0.3749982 h 8.43737 c 6.66216,0 8.43611,0.035884 8.43142,0.170459 -0.003,0.093758 -0.26409,1.3056534 -0.57963,2.6931369 l -0.57374,2.5226875 -5.2013,0.03566 -5.20136,0.03566 -0.073,0.30521 c -0.0401,0.16786 -0.32632,1.624501 -0.63602,3.236973 -0.30969,1.612482 -0.59681,3.069845 -0.63806,3.238594 l -0.0751,0.306807 h 4.86482 c 4.56978,0 4.86041,0.01445 4.7925,0.23863 -0.0396,0.131249 -0.29214,1.220445 -0.56079,2.420417 -0.26869,1.199986 -0.52029,2.288403 -0.55917,2.418708 -0.0651,0.218345 -0.45164,0.23973 -4.93056,0.272718 l -4.85989,0.03578 -0.78386,3.886303 c -0.43115,2.137457 -0.78684,3.993677 -0.79049,4.124927 -0.007,0.2232 0.3287,0.238639 5.17777,0.238639 h 5.18434 l -0.0707,0.306808 c -0.0388,0.168748 -0.28456,1.257934 -0.54585,2.420419 -0.26129,1.162484 -0.50793,2.251668 -0.54807,2.420417 l -0.0729,0.306809 h -8.43906 c -7.96776,0 -8.43588,-0.01334 -8.38261,-0.23863 z"
       id="path49857" />
    <path
       style="display:inline;fill:#6f13f6;fill-opacity:1;stroke-width:1.11078;stroke-linecap:round;stroke-linejoin:round;stroke-miterlimit:4;stroke-dasharray:none"
       d="m 252.22041,37.950405 c 0.34162,-1.520777 6.53786,-30.9069807 6.53786,-31.0063836 0,-0.1662177 7.85434,-0.1455455 9.34074,0.024551 1.70722,0.1954071 2.68191,0.4658485 3.98775,1.1064458 2.48732,1.2201773 3.70995,3.2304418 3.93954,6.4774338 0.16006,2.263643 -0.35667,4.630899 -1.37775,6.311784 -0.73918,1.216812 -2.55396,2.857065 -3.94986,3.570029 -0.64165,0.327724 -1.16692,0.634376 -1.16725,0.681451 -2.9e-4,0.04711 1.0478,2.77771 2.32922,6.06809 1.2814,3.290368 2.44141,6.273962 2.57777,6.63021 l 0.24792,0.647716 h -3.51401 -3.51397 l -2.04417,-6.033989 -2.04414,-6.033999 -1.22007,-0.03887 -1.22004,-0.03888 -1.12657,5.425138 c -0.61958,2.983815 -1.18888,5.716594 -1.26505,6.072843 l -0.1385,0.647717 h -3.24715 -3.24715 z M 264.8981,20.863011 c 2.95515,-0.369523 4.49554,-2.034557 4.53401,-4.900886 0.0262,-1.941728 -0.65652,-3.034189 -2.1828,-3.49354 -0.61007,-0.183602 -3.17294,-0.269396 -3.17294,-0.106185 0,0.09841 -1.60575,7.86214 -1.72144,8.323068 -0.0773,0.30863 -0.0502,0.322059 0.65341,0.322059 0.40385,0 1.25424,-0.06499 1.88976,-0.144489 z"
       id="path49896" />
  </g>
</svg>
